<svg width="463" height="669" viewBox="0 0 463 669" fill="none" xmlns="http://www.w3.org/2000/svg">
<path fill-rule="evenodd" clip-rule="evenodd" d="M200.114 49.3628C225.394 8.7592 229.309 2.47149 230.3 1.29999C230.8 0.599982 231.6 0.200019 232 0.500007C232.7 1.00001 236.6 7.00001 272 64C284.8 84.6 296.7 103.7 298.5 106.5C300.3 109.2 307 120 313.5 130.5C316.62 135.492 323.218 146.082 331.438 159.273C340.343 173.566 351.152 190.911 361.5 207.5L365.812 214.426C399.267 268.158 422.05 304.752 425.6 310.7C426.6 312.5 430.1 318.3 433.3 323.5C438.3 331.8 444 342.9 444 344.5C444 344.8 445 347.1 446.3 349.8C452.3 361.6 459.5 390.4 462 412.1C463.9 427.9 462.8 461.2 460 477C451.8 523.2 430.9 564.2 398.1 598.3C378.9 618.2 359.4 632.3 333.5 645C300 661.5 269.7 668.5 231.5 668.5C193.3 668.5 163 661.5 129.5 645C103.6 632.3 84.1 618.2 64.9 598.3C32.1 564.2 11.2 523.2 3 477C0.199996 461.2 -0.900004 427.9 0.999996 412.1C3.5 390.4 10.7 361.6 16.7 349.8C18 347.1 19 344.8 19.1 344.5C19.2 342.7 25.1 331.1 29.8 323.3C31.2308 320.9 32.7469 318.415 34.063 316.257C35.5983 313.74 36.8616 311.669 37.4 310.7C40.9498 304.752 63.7369 268.153 97.1955 214.414L101.5 207.5C111.849 190.91 122.658 173.563 131.564 159.271C139.782 146.08 146.38 135.491 149.5 130.5C156 120 162.7 109.2 164.5 106.5C166.3 103.7 178.2 84.6 191 64C194.311 58.6824 197.341 53.8162 200.114 49.3628ZM334.23 236.359C290.709 166.578 253.667 107.185 244.1 91.7C237.4 80.9 231.7 72 231.5 72C231.3 72 225.6 80.9 218.9 91.7C207.8 109.7 171 168.7 97.6 286.3C82.9 309.9 70.6 329.9 70.3 330.8C69.9 331.7 69.4 332.7 69 333C67.2 334.5 60.9 345.8 56.4 355.5C31.7 409 32.1 469.2 57.4 521.4C96.8 602.6 187.9 646.5 274.7 626C370.9 603.4 435.1 512.4 423.5 415C421 393.6 415.6 374.7 406.4 355.2C401.1 343.9 395.3 334 393.9 334C393.6 334 393 333 392.8 331.7C392.6 330.5 380.3 310.1 365.5 286.5C354.902 269.505 344.389 252.649 334.23 236.359Z" fill="#9B4DCA"/>
<path d="M347.91 307.808C317.884 264.809 258.583 252.064 215.706 279.398L140.402 327.419C130.229 333.822 121.504 342.279 114.783 352.249C108.063 362.218 103.495 373.481 101.372 385.317C97.7802 405.255 100.938 425.822 110.344 443.761C103.899 453.545 99.5022 464.534 97.4211 476.066C95.2758 488.14 95.5619 500.522 98.2625 512.485C100.963 524.447 106.024 535.75 113.148 545.729C143.18 588.732 202.482 601.472 245.353 574.139L320.656 526.118C330.83 519.715 339.556 511.259 346.276 501.289C352.997 491.32 357.564 480.056 359.686 468.22C363.278 448.283 360.123 427.716 350.721 409.774C357.165 399.991 361.559 389.002 363.638 377.471C365.785 365.397 365.5 353.015 362.799 341.052C360.098 329.089 355.037 317.787 347.911 307.808" fill="#9B4DCA"/>
<path d="M208.357 549.408C196.511 552.491 184.004 551.861 172.527 547.604C161.05 543.347 151.155 535.668 144.179 525.604C139.895 519.605 136.852 512.81 135.228 505.618C133.604 498.426 133.432 490.982 134.722 483.722C135.159 481.339 135.76 478.989 136.521 476.688L137.939 472.363L141.795 475.197C150.702 481.746 160.661 486.725 171.242 489.919L174.04 490.769L173.782 493.563C173.44 497.538 174.516 501.505 176.818 504.762C178.918 507.794 181.897 510.107 185.352 511.391C188.808 512.674 192.574 512.865 196.141 511.939C197.777 511.501 199.337 510.815 200.765 509.905L276.044 461.903C277.886 460.742 279.466 459.211 280.684 457.405C281.902 455.6 282.73 453.56 283.117 451.417C283.503 449.229 283.45 446.986 282.961 444.818C282.471 442.651 281.555 440.603 280.267 438.793C278.166 435.761 275.186 433.447 271.729 432.163C268.273 430.879 264.505 430.687 260.936 431.613C259.302 432.05 257.745 432.736 256.318 433.645L227.593 451.968C222.869 454.973 217.714 457.239 212.307 458.685C200.46 461.767 187.954 461.137 176.477 456.88C165.001 452.623 155.106 444.945 148.129 434.881C143.846 428.882 140.802 422.087 139.179 414.895C137.555 407.703 137.383 400.259 138.673 392.999C139.948 385.884 142.694 379.113 146.735 373.12C150.775 367.127 156.021 362.044 162.137 358.196L237.409 310.19C242.134 307.179 247.293 304.911 252.705 303.464C264.551 300.382 277.057 301.012 288.534 305.269C300.011 309.526 309.906 317.205 316.882 327.268C321.166 333.268 324.209 340.063 325.833 347.255C327.456 354.447 327.628 361.891 326.339 369.15C325.9 371.533 325.299 373.884 324.54 376.185L323.122 380.51L319.267 377.68C310.361 371.128 300.402 366.146 289.819 362.952L287.021 362.102L287.279 359.308C287.618 355.333 286.542 351.367 284.243 348.108C282.143 345.077 279.164 342.763 275.709 341.48C272.253 340.197 268.487 340.005 264.92 340.932C263.284 341.37 261.724 342.055 260.296 342.965L185.017 390.97C183.175 392.129 181.595 393.661 180.379 395.466C179.162 397.271 178.335 399.31 177.95 401.453C177.561 403.641 177.612 405.884 178.101 408.052C178.589 410.22 179.505 412.269 180.794 414.078C182.895 417.11 185.875 419.424 189.332 420.708C192.788 421.992 196.555 422.184 200.125 421.259C201.76 420.82 203.319 420.134 204.748 419.225L233.47 400.909C238.192 397.899 243.346 395.632 248.755 394.186C260.601 391.104 273.107 391.734 284.584 395.991C296.061 400.248 305.955 407.927 312.932 417.99C317.216 423.99 320.259 430.785 321.883 437.977C323.507 445.169 323.678 452.613 322.388 459.872C321.112 466.988 318.366 473.759 314.325 479.753C310.285 485.746 305.04 490.831 298.925 494.681L223.652 542.683C218.926 545.693 213.768 547.961 208.356 549.408" fill="white"/>
</svg>
